<svg xmlns="http://www.w3.org/2000/svg" viewBox="0 0 100 100"><defs><style>.cls-1,.cls-3,.cls-6,.cls-7{fill:#fff;}.cls-2{fill:#f5a200;}.cls-3,.cls-4{font-size:11px;font-family:Gotham-Black, Gotham Black;font-weight:800;}.cls-5,.cls-6{font-size:12px;}.cls-5,.cls-6,.cls-7{font-family:MyriadPro-Regular, Myriad Pro;}.cls-7{font-size:9px;}</style></defs><g id="Letter_lines" data-name="Letter lines"><rect class="cls-1" x="37" y="30" width="3.3" height="46"/><rect class="cls-1" x="37.97" y="30" width="28.39" height="4"/><rect class="cls-1" x="37.97" y="43.38" width="17.95" height="2.94"/><rect class="cls-1" x="42.05" y="48.6" width="3.2" height="27.4"/><rect class="cls-1" x="42.05" y="35.37" width="3.2" height="6.71"/><rect class="cls-1" x="42.05" y="47.78" width="13.91" height="2.67"/><rect class="cls-1" x="42.87" y="35.37" width="23.48" height="3.53"/></g><g id="star"><polygon class="cls-2" points="62.75 52.89 63.94 55.31 66.6 55.69 64.68 57.57 65.13 60.23 62.75 58.97 60.37 60.23 60.82 57.57 58.89 55.69 61.56 55.31 62.75 52.89"/></g><g id="text"><text class="cls-3" transform="translate(24.43 29.25) rotate(-44.74)">F</text><text class="cls-3" transform="translate(28.68 24.79) rotate(-33.18)">A</text><text class="cls-3" transform="translate(35.77 20.12) rotate(-19.05)">N</text><text class="cls-3" transform="translate(43.79 17.42) rotate(-5.98)">T</text><text class="cls-3" transform="translate(49.93 16.59) rotate(5.44)">A</text><text class="cls-3" transform="translate(58.35 17.45) rotate(18.34)">S</text><text class="cls-3" transform="translate(64.87 19.57) rotate(29.94)">T</text><text class="cls-3" transform="translate(71.13 23.35) rotate(39.1)">I</text><text class="cls-3" transform="translate(74.06 25.5) rotate(48.8)">K</text><text class="cls-4" transform="translate(79.22 31.69) rotate(58.11)"> </text><text class="cls-5" transform="matrix(-0.8, 0.6, -0.6, -0.8, 26.81, 16.59)"> </text><text class="cls-5" transform="translate(24.57 18.28) rotate(139.31)"> </text><text class="cls-5" transform="translate(22.45 20.11) rotate(135.51)"> </text><text class="cls-5" transform="translate(20.45 22.08) rotate(131.71)"> </text><text class="cls-5" transform="matrix(-0.61, 0.79, -0.79, -0.61, 18.59, 24.19)"> </text><text class="cls-5" transform="matrix(-0.56, 0.83, -0.83, -0.56, 16.85, 26.44)"> </text><text class="cls-5" transform="matrix(-0.5, 0.86, -0.86, -0.5, 15.3, 28.75)"> </text><text class="cls-5" transform="matrix(-0.44, 0.9, -0.9, -0.44, 13.88, 31.2)"> </text><text class="cls-5" transform="translate(12.64 33.72) rotate(112.53)"> </text><text class="cls-5" transform="translate(11.56 36.34) rotate(108.65)"> </text><text class="cls-5" transform="translate(10.67 39.01) rotate(104.78)"> </text><text class="cls-5" transform="translate(9.96 41.73) rotate(100.94)"> </text><text class="cls-5" transform="translate(9.44 44.49) rotate(97.11)"> </text><text class="cls-5" transform="matrix(-0.06, 1, -1, -0.06, 9.1, 47.3)"> </text><text class="cls-5" transform="translate(8.94 50.13) rotate(89.07)"> </text><text class="cls-5" transform="translate(8.98 52.89) rotate(85.74)"> </text><text class="cls-5" transform="translate(9.2 55.71) rotate(81.9)"> </text><text class="cls-5" transform="matrix(0.21, 0.98, -0.98, 0.21, 9.61, 58.51)"> </text><text class="cls-5" transform="translate(10.2 61.25) rotate(74.19)"> </text><text class="cls-5" transform="translate(10.97 63.96) rotate(70.33)"> </text><text class="cls-5" transform="matrix(0.4, 0.92, -0.92, 0.4, 11.93, 66.61)"> </text><text class="cls-5" transform="matrix(0.46, 0.89, -0.89, 0.46, 13.06, 69.18)"> </text><text class="cls-5" transform="translate(14.37 71.69) rotate(58.76)"> </text><text class="cls-5" transform="translate(15.84 74.09) rotate(54.93)"> </text><text class="cls-6" transform="matrix(0.63, 0.78, -0.78, 0.63, 17.46, 76.39)"> </text><text class="cls-6" transform="translate(19.23 78.57) rotate(47.3)"> </text><text class="cls-7" transform="matrix(0.75, 0.66, -0.66, 0.75, 21.87, 80.01)">C</text><text class="cls-7" transform="matrix(0.82, 0.58, -0.58, 0.82, 26.53, 83.96)">l</text><text class="cls-7" transform="matrix(0.87, 0.49, -0.49, 0.87, 28.96, 85.69)">e</text><text class="cls-7" transform="translate(33.74 88.3) rotate(21.83)">a</text><text class="cls-7" transform="matrix(0.97, 0.24, -0.24, 0.97, 38.66, 90.23)">n</text><text class="cls-7" transform="translate(44.42 91.53) rotate(7.38)">•</text><text class="cls-7" transform="translate(47.8 91.98) rotate(1.04)">B</text><text class="cls-7" transform="translate(53.57 91.98) rotate(-5.57)">r</text><text class="cls-7" transform="translate(57.28 91.62) rotate(-11.88)">e</text><text class="cls-7" transform="translate(62.72 90.47) rotate(-21.17)">w</text><text class="cls-7" transform="matrix(0.88, -0.48, 0.48, 0.88, 69.69, 87.55)">i</text><text class="cls-7" transform="matrix(0.82, -0.57, 0.57, 0.82, 72.33, 86.15)">n</text><text class="cls-7" transform="translate(77.18 82.7) rotate(-43.08)">g</text><text class="cls-5" transform="translate(82.19 79.22) rotate(-49.57)"> </text></g></svg>